<svg width="167" height="167" viewBox="0 0 167 167" fill="none" xmlns="http://www.w3.org/2000/svg">
<path d="M166.458 0H0V166.458H166.458V0Z" fill="#EF402A"/>
<path d="M16.6733 45.577C15.4726 44.8051 14.6492 43.7245 14.2032 42.3007C13.7572 40.8941 13.5342 39.1273 13.5342 37.0174H19.4179C19.4179 38.8529 19.5894 40.1737 19.9325 40.997C20.2755 41.8204 20.9445 42.2321 21.9223 42.2321C22.7114 42.2321 23.2774 41.9748 23.6548 41.443C24.015 40.9284 24.2552 40.208 24.3409 39.316C24.4267 38.4069 24.4782 37.1203 24.4782 35.4221C24.4782 33.4838 24.3066 32.0429 23.9464 31.0994C23.5862 30.156 22.8657 29.6757 21.7679 29.6757C20.3613 29.6757 19.4522 30.6363 19.0576 32.5403H13.843L14.2718 14.512H28.8866V19.7266H19.2463L18.8861 26.7424C19.2464 26.2965 19.881 25.9191 20.773 25.6275C21.665 25.3359 22.6084 25.1815 23.6376 25.1815C25.799 25.1815 27.4457 26.0563 28.5264 27.806C29.6242 29.5556 30.1731 32.0086 30.1731 35.1648C30.1731 37.6693 29.9502 39.762 29.5042 41.4087C29.0582 43.0726 28.2177 44.3763 26.9826 45.3197C25.7476 46.2803 23.9635 46.7435 21.6821 46.7435C19.5379 46.7435 17.8741 46.3661 16.6733 45.5942" fill="white"/>
<path d="M46.8293 26.7424C45.68 26.7424 44.8567 26.3822 44.3592 25.6617C43.8617 24.9413 43.6045 23.8949 43.6045 22.5398V18.5945C43.6045 17.8912 43.6559 17.2908 43.776 16.7934C43.8789 16.2959 44.0676 15.8499 44.3249 15.4725C44.5822 15.0952 44.9424 14.8035 45.3884 14.6149C45.8344 14.4262 46.4005 14.3232 47.0523 14.3232C48.2531 14.3232 49.1108 14.6149 49.6425 15.1981C50.1571 15.7813 50.4316 16.6733 50.4316 17.874V18.4744H48.3217V17.8397C48.3217 17.5653 48.3217 17.3594 48.3045 17.1879C48.3045 17.0163 48.2702 16.8448 48.2187 16.6733C48.1673 16.5017 48.0987 16.3645 48.0129 16.2787C47.9271 16.193 47.8071 16.1072 47.6527 16.0557C47.4983 16.0043 47.3096 15.97 47.1038 15.97C46.9322 15.97 46.7951 15.9871 46.6578 16.0386C46.5206 16.0729 46.4177 16.1244 46.3319 16.193C46.2461 16.2616 46.1775 16.3474 46.1089 16.4503C46.0574 16.5704 46.0059 16.6733 45.9716 16.7762C45.9373 16.8791 45.9202 17.0163 45.9031 17.1879C45.8859 17.3594 45.8687 17.4966 45.8687 17.6339C45.8687 17.754 45.8687 17.9255 45.8687 18.1313V23.0201C45.8687 23.7577 45.9545 24.2895 46.1432 24.6325C46.3319 24.9756 46.675 25.1471 47.1724 25.1471C47.4297 25.1471 47.6527 25.0957 47.8414 24.9927C48.0129 24.8898 48.1502 24.7354 48.2531 24.5468C48.356 24.3409 48.4246 24.1179 48.4589 23.8435C48.4932 23.5862 48.5276 23.2602 48.5276 22.9V21.9051H47.2239V20.4814H50.5174V26.6395H49.0764L48.9221 25.4044C48.5618 26.3307 47.8757 26.7939 46.8637 26.7939" fill="white"/>
<path d="M52.0782 26.588V14.4604H57.1557V16.0214H54.2911V19.5036H56.5554V21.0646H54.2911V25.0613H57.19V26.588H52.0782Z" fill="white"/>
<path d="M58.3909 26.588V14.4604H59.9004L62.8851 21.3219V14.4604H64.7034V26.588H63.2625L60.2606 19.3664V26.588H58.3909Z" fill="white"/>
<path d="M68.6485 25.0442H69.2832C69.5062 25.0442 69.6949 25.027 69.8665 24.9927C70.038 24.9584 70.1752 24.907 70.2781 24.8555C70.3982 24.804 70.484 24.7183 70.5697 24.5982C70.6383 24.4781 70.707 24.358 70.7413 24.2551C70.7756 24.1522 70.8099 23.9978 70.8271 23.792C70.8442 23.5861 70.8614 23.4146 70.8614 23.2602C70.8614 23.1058 70.8614 22.9 70.8614 22.6084V18.1656C70.8614 17.874 70.8614 17.651 70.8614 17.4795C70.8614 17.3079 70.827 17.1364 70.7927 16.9477C70.7584 16.7762 70.707 16.639 70.6384 16.536C70.5697 16.4331 70.4668 16.3473 70.3639 16.2616C70.2438 16.1758 70.1066 16.1243 69.9179 16.09C69.7464 16.0557 69.5234 16.0386 69.2832 16.0386H68.6829V25.0442H68.6485ZM66.4529 26.588V14.4604H69.2832C70.0208 14.4604 70.6212 14.5291 71.1186 14.6834C71.6161 14.8378 72.0106 15.0608 72.3022 15.3696C72.5939 15.6784 72.8168 16.0729 72.9369 16.536C73.057 16.9992 73.1256 17.5652 73.1256 18.2342V22.6084C73.1256 23.2945 73.057 23.8949 72.9369 24.3752C72.8168 24.8555 72.5939 25.2672 72.3194 25.6103C72.0278 25.9533 71.6333 26.1935 71.153 26.3479C70.6727 26.5022 70.0723 26.588 69.369 26.588H66.4529Z" fill="white"/>
<path d="M74.6523 26.588V14.4604H79.7298V16.0214H76.8652V19.5036H79.1294V21.0646H76.8652V25.0613H79.7813V26.588H74.6523Z" fill="white"/>
<path d="M83.1777 19.6408H83.7095C84.3613 19.6408 84.8245 19.5036 85.0989 19.2291C85.3734 18.9547 85.5106 18.4744 85.5106 17.8054C85.5106 17.1364 85.3905 16.6904 85.1504 16.416C84.9102 16.1415 84.4643 15.9871 83.8296 15.9871H83.1606V19.6408H83.1777ZM80.965 26.588V14.4604H83.7438C84.3785 14.4604 84.9274 14.5119 85.3906 14.6148C85.8537 14.7178 86.2483 14.8893 86.5913 15.1466C86.9344 15.3867 87.1917 15.7298 87.3461 16.1415C87.5176 16.5703 87.6034 17.0849 87.6034 17.6853C87.6034 18.4401 87.4833 19.0748 87.2603 19.5551C87.0373 20.0354 86.6599 20.3956 86.1453 20.6014L87.8264 26.5709H85.6136L84.1727 21.0303H83.1949V26.5709H80.9821L80.965 26.588Z" fill="white"/>
<path d="M43.7931 46.4176V34.29H48.8705V35.8339H46.0059V39.316H48.2701V40.877H46.0059V44.8909H48.9049V46.4176H43.7931Z" fill="white"/>
<path d="M52.8501 44.8222C53.0045 44.8908 53.1932 44.908 53.399 44.908C53.6049 44.908 53.7936 44.8737 53.948 44.8222C54.1023 44.7536 54.2224 44.6678 54.3082 44.5821C54.3939 44.4792 54.4625 44.3419 54.514 44.1704C54.5655 43.9989 54.5998 43.8445 54.6169 43.6729C54.6341 43.5014 54.6512 43.3127 54.6512 43.0726V37.5663C54.6512 37.2747 54.6512 37.0345 54.5998 36.8287C54.5654 36.64 54.514 36.4513 54.4283 36.2798C54.3425 36.1082 54.2224 35.971 54.0509 35.8852C53.8793 35.7995 53.6563 35.748 53.399 35.748C53.1417 35.748 52.9187 35.7823 52.7472 35.8852C52.5757 35.971 52.4556 36.0911 52.3698 36.2798C52.284 36.4513 52.2326 36.64 52.1983 36.8287C52.164 37.0174 52.164 37.2747 52.164 37.5663V43.0726C52.164 43.2956 52.164 43.5014 52.1812 43.6729C52.1983 43.8445 52.2326 43.9989 52.2841 44.1704C52.3355 44.3419 52.4041 44.4792 52.4899 44.5821C52.5757 44.685 52.6957 44.7708 52.8501 44.8222ZM55.9892 48.8362C55.629 48.6646 55.2173 48.3559 54.7713 47.9099C54.3253 47.4639 53.9479 47.0007 53.6563 46.5376C53.6049 46.5376 53.5191 46.5376 53.4162 46.5376C52.1639 46.5376 51.272 46.1945 50.7231 45.5255C50.1742 44.8394 49.9169 43.8616 49.9169 42.5408V38.0637C49.9169 37.4119 49.9855 36.863 50.1055 36.3827C50.2256 35.9195 50.4143 35.5078 50.6887 35.1476C50.9632 34.8046 51.3234 34.5472 51.7694 34.3757C52.2154 34.2042 52.7643 34.1184 53.4162 34.1184C54.6512 34.1184 55.5432 34.4615 56.0922 35.1133C56.6411 35.7823 56.8984 36.7601 56.8984 38.0466V42.5237C56.8984 44.4105 56.3323 45.6113 55.2173 46.1602C55.6976 46.7263 56.0921 47.1208 56.4009 47.3095L55.9892 48.8019V48.8362Z" fill="white"/>
<path d="M61.77 46.5546C61.2211 46.5546 60.758 46.486 60.3634 46.366C59.9689 46.2459 59.643 46.0572 59.3857 45.8342C59.1284 45.6112 58.9225 45.3196 58.7682 44.9594C58.6138 44.5991 58.5109 44.2218 58.4422 43.7929C58.3736 43.3812 58.3564 42.9009 58.3564 42.3349V34.2727H60.5006V42.5579C60.5006 42.8495 60.5007 43.0725 60.5178 43.2783C60.5178 43.467 60.5692 43.69 60.6036 43.913C60.655 44.136 60.7237 44.3075 60.8094 44.4448C60.8952 44.582 61.0153 44.6849 61.1868 44.7707C61.3412 44.8564 61.5299 44.9079 61.77 44.9079C62.0102 44.9079 62.1817 44.8564 62.3533 44.7707C62.5076 44.6849 62.6277 44.582 62.7135 44.4448C62.7992 44.3075 62.8678 44.136 62.9193 43.913C62.9708 43.69 63.0051 43.4842 63.0222 43.2783C63.0222 43.0896 63.0222 42.8323 63.0222 42.5579V34.2727H65.1664V42.3349C65.1664 42.8838 65.1321 43.3641 65.0807 43.7929C65.012 44.2046 64.9091 44.5991 64.7547 44.9594C64.6004 45.3196 64.3945 45.6112 64.1372 45.8342C63.8799 46.0572 63.554 46.2459 63.1595 46.366C62.7649 46.486 62.3018 46.5546 61.7529 46.5546" fill="white"/>
<path d="M68.9917 42.1464H70.6213L69.8151 37.1718L69.0089 42.1464H68.9917ZM66.1785 46.4176L68.6486 34.29H70.9472L73.4002 46.4176H71.3417L70.8443 43.6044H68.7515L68.2541 46.4176H66.1614H66.1785Z" fill="white"/>
<path d="M74.5323 46.4176V34.29H76.7451V44.8909H79.6441V46.4176H74.5323Z" fill="white"/>
<path d="M82.9717 34.29H80.7932V46.4176H82.9717V34.29Z" fill="white"/>
<path d="M85.9565 46.4176V35.9196H83.9153V34.29H90.142V35.9196H88.1693V46.4176H85.9565Z" fill="white"/>
<path d="M92.7322 46.4176V41.8033L90.2621 34.29H92.3205L93.8301 39.1102L95.2538 34.29H97.2951L94.8421 41.8033V46.4176H92.7322Z" fill="white"/>
<path d="M82.9374 120.967C71.8905 120.967 62.9021 111.978 62.9021 100.931C62.9021 89.8845 71.8905 80.896 82.9374 80.896C93.9843 80.896 102.973 89.8845 102.973 100.931C102.973 111.978 93.9843 120.967 82.9374 120.967ZM121.413 62.8848H100.64C100.503 62.8848 100.383 63.0048 100.383 63.1421V70.055C100.383 70.2093 100.503 70.3123 100.64 70.3123H108.908L99.7136 79.5066C95.0821 75.87 89.2671 73.6915 82.9374 73.6915C67.928 73.6915 55.7147 85.9048 55.7147 100.914C55.7147 114.74 66.0754 126.164 79.4209 127.897V135.856H71.2215C71.0671 135.856 70.947 135.976 70.947 136.113V143.524C70.947 143.678 71.0671 143.781 71.2215 143.781H79.4209V151.62C79.4209 151.757 79.541 151.877 79.6782 151.877H87.0714C87.2086 151.877 87.3459 151.757 87.3459 151.62V143.781H95.5453C95.6997 143.781 95.8026 143.661 95.8026 143.524V136.113C95.8026 135.976 95.6825 135.856 95.5453 135.856H87.3459V127.777C100.262 125.65 110.143 114.431 110.143 100.914C110.143 95.082 108.29 89.6958 105.168 85.253L114.225 76.1959V83.9322C114.225 84.0694 114.346 84.1895 114.5 84.1895H121.396C121.55 84.1895 121.67 84.0694 121.67 83.9322V63.1421C121.67 62.9877 121.55 62.8848 121.396 62.8848" fill="white"/>
<path d="M95.168 92.6978H70.8614C70.7242 92.6978 70.6041 92.8007 70.6041 92.9379V98.8216C70.6041 98.9588 70.7242 99.0617 70.8614 99.0617H95.168C95.3224 99.0617 95.4424 98.9588 95.4424 98.8216V92.9379C95.4424 92.8178 95.3224 92.6978 95.168 92.6978Z" fill="white"/>
<path d="M95.168 103.196H70.8614C70.7242 103.196 70.6041 103.299 70.6041 103.436V109.319C70.6041 109.457 70.7242 109.56 70.8614 109.56H95.168C95.3224 109.56 95.4424 109.457 95.4424 109.319V103.436C95.4424 103.299 95.3224 103.196 95.168 103.196Z" fill="white"/>
</svg>
