<svg width="167" height="167" viewBox="0 0 167 167" fill="none" xmlns="http://www.w3.org/2000/svg">
<path d="M166.458 0.00012207H0V166.458H166.458V0.00012207Z" fill="#40AE49"/>
<path d="M14.2031 20.7559C13.9115 20.9102 13.0882 21.2362 11.6987 21.7336C10.6009 22.0938 9.91475 22.3511 9.62314 22.4712V17.9598C10.5151 17.6168 11.5958 17.1021 12.8652 16.3989C14.1345 15.6956 15.0265 15.0437 15.5583 14.4777H20.2926V46.2117H14.2203V20.7387L14.2031 20.7559Z" fill="white"/>
<path d="M26.8967 45.5772C25.696 44.8053 24.8726 43.7074 24.4266 42.3008C23.9806 40.8942 23.7576 39.1274 23.7576 37.0175H29.6413C29.6413 38.853 29.8128 40.1738 30.1559 40.9972C30.499 41.8205 31.168 42.2322 32.1629 42.2322C32.9519 42.2322 33.518 41.9749 33.8954 41.4432C34.2556 40.9285 34.4957 40.2081 34.5815 39.3161C34.6673 38.4241 34.7187 37.1205 34.7187 35.4223C34.7187 33.4839 34.5472 32.043 34.187 31.0996C33.8439 30.139 33.1063 29.6758 32.0085 29.6758C30.6019 29.6758 29.6928 30.6364 29.2982 32.5405H24.0836L24.5124 14.5121H39.1272V19.7268H29.4869L29.1267 26.7426C29.4869 26.2966 30.1216 25.9192 31.0136 25.6276C31.9056 25.3188 32.849 25.1816 33.8782 25.1816C36.0396 25.1816 37.6863 26.0564 38.7841 27.8061C39.882 29.5557 40.4309 32.0087 40.4309 35.1649C40.4309 37.6694 40.2079 39.7621 39.7619 41.4088C39.3159 43.0556 38.4754 44.3764 37.2403 45.3198C36.0053 46.2804 34.2213 46.7436 31.9227 46.7436C29.7785 46.7436 28.1146 46.3662 26.9139 45.5943" fill="white"/>
<path d="M53.1247 26.6053V14.4606H55.3375V25.0615H58.2365V26.6053H53.1247Z" fill="white"/>
<path d="M61.2039 14.4606H59.0254V26.5881H61.2039V14.4606Z" fill="white"/>
<path d="M62.6105 26.6053V14.4606H67.6022V16.0044H64.8233V19.5209H67.0533V21.0818H64.8233V26.6053H62.6105Z" fill="white"/>
<path d="M68.3225 26.6053V14.4606H73.3828V16.0216H70.5182V19.5037H72.7824V21.0647H70.5182V25.0615H73.4343V26.6053H68.3225Z" fill="white"/>
<path d="M55.8691 44.8395C56.0235 44.9081 56.2122 44.9424 56.418 44.9424C56.6239 44.9424 56.8126 44.9081 56.9669 44.8395C57.1213 44.7709 57.2414 44.6851 57.3272 44.5822C57.4129 44.4793 57.4816 44.3421 57.533 44.1877C57.5845 44.0161 57.6188 43.8617 57.6359 43.6902C57.6359 43.5187 57.6531 43.33 57.6531 43.0898V37.5835C57.6531 37.2919 57.6531 37.0518 57.6188 36.846C57.5845 36.6401 57.533 36.4686 57.4472 36.297C57.3615 36.1255 57.2414 35.9883 57.0699 35.9025C56.8983 35.8167 56.6753 35.7653 56.418 35.7653C56.1607 35.7653 55.9377 35.8167 55.7662 35.9025C55.5947 35.9883 55.4746 36.1083 55.3888 36.297C55.3031 36.4686 55.2516 36.6573 55.2173 36.846C55.183 37.0346 55.183 37.2919 55.183 37.5835V43.0898C55.183 43.3128 55.183 43.5187 55.2001 43.6902C55.2173 43.8617 55.2516 44.0161 55.3031 44.1877C55.3545 44.3592 55.4231 44.4793 55.5089 44.5822C55.5947 44.6851 55.7147 44.7709 55.8691 44.8395ZM56.418 46.572C55.1658 46.572 54.2738 46.2289 53.7421 45.5599C53.1932 44.8738 52.9359 43.8961 52.9359 42.5752V38.0982C52.9359 37.4463 53.0045 36.8974 53.1245 36.4171C53.2446 35.954 53.4505 35.5423 53.7078 35.1821C53.9822 34.839 54.3424 34.5817 54.7884 34.4101C55.2344 34.2386 55.7833 34.1528 56.418 34.1528C57.6702 34.1528 58.5622 34.4788 59.094 35.1477C59.6429 35.8167 59.9174 36.7945 59.9174 38.081V42.5581C59.9174 43.1927 59.8487 43.7417 59.7287 44.222C59.6086 44.7023 59.4027 45.114 59.1283 45.4742C58.8538 45.8344 58.4936 46.0917 58.0476 46.2804C57.6016 46.4691 57.0527 46.5548 56.418 46.5548" fill="white"/>
<path d="M61.0838 46.4176V34.29H62.6104L65.578 41.1686V34.29H67.4134V46.4176H65.9554L62.9535 39.196V46.4176H61.0838Z" fill="white"/>
<path d="M71.9764 46.4176V34.29H74.1893V44.8909H77.0882V46.4176H71.9764Z" fill="white"/>
<path d="M80.0041 42.1635H81.6337L80.8275 37.189L80.0213 42.1635H80.0041ZM77.191 46.4176L79.6611 34.29H81.9597L84.4126 46.4176H82.3542L81.8567 43.6044H79.764L79.2665 46.4176H77.191Z" fill="white"/>
<path d="M85.1503 46.4176V34.29H86.677L89.6445 41.1686V34.29H91.4799V46.4176H90.0219L87.0372 39.196V46.4176H85.1503Z" fill="white"/>
<path d="M95.0478 44.8738H95.6825C95.9055 44.8738 96.0942 44.8566 96.2657 44.8223C96.4373 44.788 96.5745 44.7365 96.6774 44.6851C96.7975 44.6336 96.8832 44.5479 96.9519 44.4278C97.0205 44.3077 97.0891 44.1876 97.1234 44.0847C97.1577 43.9818 97.192 43.8274 97.2092 43.6216C97.2263 43.4157 97.2435 43.2442 97.2435 43.0898C97.2435 42.9354 97.2435 42.7296 97.2435 42.438V38.0124C97.2435 37.7207 97.2435 37.4978 97.2435 37.3262C97.2435 37.1547 97.2092 36.966 97.1749 36.7944C97.1406 36.6229 97.0891 36.4857 97.0205 36.3828C96.9519 36.2799 96.849 36.1941 96.746 36.1083C96.626 36.0225 96.4887 35.9711 96.3 35.9368C96.1285 35.9025 95.9055 35.8853 95.6653 35.8853H95.065V44.8909L95.0478 44.8738ZM92.835 46.4176V34.29H95.6653C96.403 34.29 97.0033 34.3587 97.5008 34.513C97.9982 34.6674 98.3928 34.8904 98.6844 35.1992C98.976 35.5079 99.199 35.9025 99.3191 36.3656C99.4391 36.8288 99.5077 37.3948 99.5077 38.0638V42.438C99.5077 43.1241 99.4391 43.7245 99.3191 44.2048C99.199 44.6851 98.9931 45.0968 98.7015 45.4398C98.4099 45.7829 98.0154 46.0231 97.5351 46.1774C97.0548 46.3318 96.4544 46.4176 95.7511 46.4176H92.835Z" fill="white"/>
<path d="M63.9483 112.682H68.8714C69.0773 112.682 69.2488 112.853 69.2488 113.059V125.238C69.2488 125.444 69.0773 125.598 68.8886 125.598H63.9655C63.7597 125.598 63.5881 125.427 63.5881 125.221V113.042C63.5881 112.836 63.7597 112.682 63.9483 112.682Z" fill="white"/>
<path d="M122.974 130.83H41.7689C41.5631 130.83 41.3915 131.002 41.3915 131.208V136.165C41.3915 136.371 41.5631 136.525 41.7689 136.525H122.974C123.18 136.525 123.351 136.354 123.351 136.165V131.208C123.351 131.002 123.18 130.83 122.974 130.83Z" fill="white"/>
<path d="M122.974 140.694H41.7689C41.5631 140.694 41.3915 140.865 41.3915 141.054V146.028C41.3915 146.234 41.5631 146.389 41.7689 146.389H122.974C123.18 146.389 123.351 146.217 123.351 146.028V141.054C123.351 140.848 123.18 140.694 122.974 140.694Z" fill="white"/>
<path d="M107.536 99.1991C106.524 98.41 103.813 96.5574 100.503 96.5574C98.1355 96.5574 95.9398 97.4837 93.9843 99.3363C93.8471 99.4735 93.7614 99.6451 93.7614 99.8509V100.297C93.7614 100.52 93.83 100.726 94.0015 100.846C94.173 100.983 94.3617 101.035 94.5675 100.983C94.619 100.983 94.6705 100.966 94.722 100.949C94.8764 100.897 95.0136 100.811 95.1336 100.691C95.5625 100.4 96.7289 100.022 98.3928 100.022C100.057 100.022 103.487 100.486 106.764 103.522L106.832 103.59C107.021 103.779 107.278 103.882 107.536 103.882C107.793 103.882 108.05 103.779 108.222 103.59L108.29 103.522C111.584 100.468 114.946 100.005 116.679 100.005C118.411 100.005 119.509 100.4 119.938 100.674C120.058 100.794 120.195 100.88 120.384 100.949C120.452 100.966 120.658 101.017 120.864 100.949C121.156 100.863 121.379 100.589 121.379 100.28V99.8852C121.379 99.6965 121.293 99.5079 121.156 99.3878C119.166 97.5009 116.953 96.5403 114.551 96.5403C111.275 96.5403 108.582 98.3585 107.536 99.1819" fill="white"/>
<path d="M102.492 66.8475C102.321 66.9333 102.201 67.0877 102.132 67.2764L102.046 67.5508C101.978 67.7566 102.029 67.9968 102.149 68.1684C102.269 68.3399 102.458 68.4257 102.647 68.4428C102.681 68.4428 102.715 68.4428 102.75 68.4428C102.887 68.4428 103.024 68.4085 103.144 68.3399C103.213 68.3399 103.367 68.2884 103.642 68.2884C104.002 68.2884 107.278 68.4085 109.44 72.0794L109.474 72.1308C109.594 72.3367 109.783 72.491 109.989 72.5425C110.057 72.5596 110.177 72.5768 110.246 72.5768C110.4 72.5768 110.555 72.5425 110.657 72.4739H110.709C111.893 71.8564 113.128 71.5476 114.328 71.5476C116.37 71.5476 117.725 72.3881 118.034 72.7312C118.102 72.8513 118.188 72.9542 118.308 73.04C118.377 73.0743 118.497 73.1429 118.565 73.16C118.6 73.16 118.651 73.16 118.685 73.16C118.703 73.16 118.737 73.16 118.754 73.16C118.874 73.16 118.977 73.1429 119.08 73.0742C119.251 72.9885 119.372 72.8341 119.423 72.6626L119.492 72.4225C119.492 72.4225 119.526 72.3023 119.526 72.2337C119.526 72.1137 119.492 71.9765 119.44 71.8907C117.862 69.1461 115.581 68.58 113.934 68.58C112.716 68.58 111.635 68.8888 111.018 69.1289C110.28 68.134 108.393 66.0585 105.546 66.0585C104.534 66.0585 103.522 66.3158 102.492 66.8304" fill="white"/>
<path d="M85.3389 79.3352L85.3732 79.6954C85.3732 79.9184 85.4933 80.1243 85.6991 80.2444C85.8535 80.3473 86.0594 80.3816 86.2481 80.3301C86.2824 80.3301 86.3338 80.313 86.3681 80.2958C86.5053 80.2443 86.6254 80.1414 86.7284 80.0385C87.0714 79.7812 88.1864 79.3352 89.8332 79.3352C91.4799 79.3352 93.8128 79.764 96.2486 81.771L96.3 81.8224C96.4716 81.9768 96.6946 82.0626 96.9176 82.0626H96.9862C97.2435 82.0455 97.4836 81.9254 97.6209 81.7539L97.6723 81.6852C100.383 78.8206 103.299 78.3917 104.791 78.3917C105.855 78.3917 106.609 78.6148 106.901 78.7863C107.021 78.8892 107.141 78.9578 107.313 79.0093C107.364 79.0093 107.484 79.0436 107.604 79.0264C107.656 79.0264 107.724 79.0093 107.776 78.9921C108.067 78.8892 108.256 78.6147 108.239 78.2888V77.9801C108.205 77.7914 108.119 77.6198 107.982 77.4998C106.369 76.1446 104.619 75.4585 102.784 75.4585C99.9194 75.4585 97.6551 77.1395 96.7117 77.9629C95.854 77.3797 93.7442 76.1618 91.2912 76.1618C89.1299 76.1618 87.1915 77.0538 85.5276 78.8206C85.3904 78.9578 85.3389 79.1465 85.3389 79.3352Z" fill="white"/>
<path d="M44.2391 85.8536C44.2391 80.9991 48.1844 77.0538 53.0388 77.0538C53.2275 77.0538 53.4162 77.0539 53.6049 77.0882C54.068 70.93 59.197 66.0756 65.4752 66.0756C71.7534 66.0756 77.3797 71.4103 77.3797 77.9801C77.3797 79.8499 76.9338 81.5995 76.179 83.1777C82.1484 84.4985 86.6083 89.7989 86.6083 96.1629C86.6083 103.522 80.656 109.474 73.2972 109.474C72.7654 109.474 55.5261 109.371 55.5261 109.371C50.3114 109.371 46.1088 105.151 46.1088 99.9538C46.1088 97.4494 47.0866 95.1851 48.6818 93.5041C46.0402 91.9774 44.2562 89.1471 44.2562 85.8708" fill="white"/>
</svg>
